<svg xmlns="http://www.w3.org/2000/svg" xmlns:xlink="http://www.w3.org/1999/xlink" width="28.815" height="37.503" viewBox="0 0 28.815 37.503">
  <defs>
    <linearGradient id="linear-gradient" x1="0.5" x2="0.5" y2="1" gradientUnits="objectBoundingBox">
      <stop offset="0" stop-color="#f7931e"/>
      <stop offset="1" stop-color="#f15a24"/>
    </linearGradient>
    <linearGradient id="linear-gradient-2" x1="0.5" x2="0.5" y2="1" gradientUnits="objectBoundingBox">
      <stop offset="0" stop-color="#333"/>
      <stop offset="1"/>
    </linearGradient>
  </defs>
  <g id="logoApp" transform="translate(-95.979 -10.737)">
    <path id="Path_3" data-name="Path 3" d="M91.687,45.9S90.48,44.049,94.1,41.279s9.3-6.961,2.557-14.135-11.364-8.31-10.8-14.064c0,0-3.906,5.611.355,11.222s2.983,7.814,2.131,8.808c0,0,.639-3.409-3.267-5.4s-3.267-4.972-3.267-4.972a8.523,8.523,0,0,0-.039,7.529c1.885,4.4.394,5.754.394,5.754A6.008,6.008,0,0,0,79.9,31.833a2.935,2.935,0,0,1-1.065-3.612s-3.764,5.174-1.279,9.364,10.7,7.174,10.7,7.174-3.435-3.126,0-7.6c0,0-.045,1.634,1.162,1.634s5.293-4.232,2.06-11.861c0,0,3.552,2.2,3.552,8.594S88.206,41.7,91.687,45.9Z" transform="translate(19.275 1.35)" fill="url(#linear-gradient)"/>
    <path id="Path_4" data-name="Path 4" d="M97.56,5.635s-.015.111-.029.322-.022.52,0,.915c.013.2.029.417.045.655s.065.493.1.768l.17.869c.078.3.164.62.26.95.114.323.228.665.366,1.012.153.338.3.7.485,1.05l.294.529a5.948,5.948,0,0,0,.319.534l.36.525a5.417,5.417,0,0,0,.387.522l.426.507a5.409,5.409,0,0,0,.453.5c.328.308.64.646,1,.933s.722.579,1.105.843l1.19.733,1.112.666a4.948,4.948,0,0,1,.522.352l.493.354a15.222,15.222,0,0,1,1.818,1.6,11.643,11.643,0,0,1,.78.868c.264.279.46.6.687.887a16.3,16.3,0,0,1,1.1,1.758c.161.281.28.567.419.831s.233.529.342.772l.266.7.205.6c.056.185.1.351.148.5s.071.27.1.371c.048.2.072.313.072.313s.011-.112.019-.322.006-.521-.025-.916c-.021-.2-.043-.415-.068-.652s-.078-.492-.131-.764-.12-.56-.2-.862-.176-.618-.3-.939a13.532,13.532,0,0,0-.927-2.028,11.331,11.331,0,0,0-.65-1.039,10.565,10.565,0,0,0-.78-1.02,10.437,10.437,0,0,0-.906-.975,10.568,10.568,0,0,0-1.028-.911l-.563-.43-.284-.214c-.1-.073-.188-.12-.283-.181L105.26,16.4l-1.08-.649c-.344-.237-.675-.489-1.011-.73a5.1,5.1,0,0,1-.472-.4l-.461-.4a4.332,4.332,0,0,1-.43-.423l-.415-.428a4.5,4.5,0,0,1-.384-.444l-.367-.446c-.244-.3-.435-.617-.654-.911s-.374-.617-.56-.91-.314-.6-.469-.889l-.386-.846-.312-.786c-.085-.252-.165-.489-.24-.707l-.183-.611c-.049-.188-.092-.355-.13-.5l-.085-.374C97.58,5.747,97.56,5.635,97.56,5.635Z" transform="translate(8.786 5.102)" fill="url(#linear-gradient-2)"/>
    <path id="Path_5" data-name="Path 5" d="M122.644,32.842s.176.318.466.874c.146.277.313.619.506,1s.394.831.605,1.314.43,1.007.639,1.567.406,1.154.581,1.77c.083.31.164.625.238.943s.135.643.179.97A11.47,11.47,0,0,1,126,43.26a8.122,8.122,0,0,1-.065.979,8.8,8.8,0,0,1-.159.954,3.808,3.808,0,0,1-.124.461c-.046.152-.08.307-.133.455l-.173.436-.084.218c-.029.072-.068.138-.1.208a7.642,7.642,0,0,1-.432.8,6.935,6.935,0,0,1-.488.736,13.727,13.727,0,0,1-1.055,1.268l-.535.521c-.085.083-.164.171-.25.246l-.252.214c-.331.27-.6.54-.86.717s-.441.346-.575.449l-.2.166.246-.084c.159-.059.4-.139.693-.257a8.851,8.851,0,0,0,1.045-.488,11.7,11.7,0,0,0,1.3-.783,10.85,10.85,0,0,0,1.371-1.2,7.017,7.017,0,0,0,.656-.766,7.313,7.313,0,0,0,.594-.881,3.336,3.336,0,0,0,.261-.482l.239-.505a9.889,9.889,0,0,0,.367-1.077,8,8,0,0,0,.227-1.132,9.385,9.385,0,0,0,.091-1.155,10.873,10.873,0,0,0-.217-2.267,12.615,12.615,0,0,0-.6-2.087,15.341,15.341,0,0,0-.832-1.823,16.527,16.527,0,0,0-.924-1.52c-.307-.455-.619-.85-.9-1.195s-.542-.629-.761-.86-.4-.4-.526-.518S122.644,32.842,122.644,32.842Z" transform="translate(-2.803 -8.609)" fill="url(#linear-gradient-2)"/>
    <path id="Path_6" data-name="Path 6" d="M115.357,66.634s-.042.005-.119.021-.189.036-.325.078a7.226,7.226,0,0,0-1.1.4,9.21,9.21,0,0,0-1.43.807,8.8,8.8,0,0,0-1.45,1.242,6.694,6.694,0,0,0-.626.787,4.752,4.752,0,0,0-.487.894,3.222,3.222,0,0,0-.235,1,1.362,1.362,0,0,0,0,.254c.006.085.008.166.02.247l.058.239a.834.834,0,0,0,.079.219,1.477,1.477,0,0,0,.217.369l.12.15c.045.042.09.081.133.117a1.884,1.884,0,0,0,.476.294,2.307,2.307,0,0,0,.329.1c.075.02.116.027.116.027l-.239-.372a2.34,2.34,0,0,1-.185-.418l-.04-.117c-.006-.041-.012-.083-.018-.126a1.165,1.165,0,0,1-.017-.124l0-.128a1.375,1.375,0,0,1,.035-.255,2.275,2.275,0,0,1,.093-.266c.023-.046.041-.092.059-.137l.079-.142c.047-.093.119-.194.178-.293.075-.1.139-.2.219-.3s.159-.2.249-.309c.171-.207.36-.419.555-.627s.395-.419.592-.629l.6-.616c.389-.4.754-.793,1.063-1.142s.562-.654.735-.879c.089-.108.153-.2.2-.264Z" transform="translate(2.709 -25.639)" fill="url(#linear-gradient-2)"/>
  </g>
</svg>
