<svg xmlns="http://www.w3.org/2000/svg" width="59.904" height="51.234" viewBox="0 0 59.904 51.234">
  <g id="Group_6" data-name="Group 6" transform="translate(-116.096 -578.766)">
    <g id="logoApp" transform="translate(13.452 532.365)">
      <g id="Group_2" data-name="Group 2" transform="translate(102.644 57.718)">
        <path id="Path_1" data-name="Path 1" d="M43.4,40.6H49.75A8.426,8.426,0,0,1,51.8,45.969a7.226,7.226,0,0,1-2.4,5.515,8.372,8.372,0,0,1-5.918,2.233,10.132,10.132,0,0,1-7.747-3.463,12.013,12.013,0,0,1-3.184-8.437,11.4,11.4,0,0,1,3.242-8.306,10.864,10.864,0,0,1,8.1-3.316,11.74,11.74,0,0,1,3.677.673v6.664a6.85,6.85,0,0,0-2.873-.739,5.235,5.235,0,0,0-3.833,1.461,5.083,5.083,0,0,0-1.486,3.791,5.137,5.137,0,0,0,1.379,3.775,5,5,0,0,0,3.726,1.4q1.494,0,1.494-.87,0-.657-.985-.657H43.4Z" transform="translate(-32.548 -30.195)" fill="#fff"/>
      </g>
      <g id="Group_3" data-name="Group 3" transform="translate(150.894 57.718)">
        <path id="Path_2" data-name="Path 2" d="M148.911,30.655V37.04a3.77,3.77,0,0,0-1.116-.246,1.743,1.743,0,0,0-1.3.558,1.863,1.863,0,0,0-.542,1.346,3.681,3.681,0,0,0,.591,1.707l.509.887a9.281,9.281,0,0,1,1.379,4.629,7.432,7.432,0,0,1-2.322,5.531,7.817,7.817,0,0,1-5.671,2.265,7.442,7.442,0,0,1-3.185-.739V46.495a3.253,3.253,0,0,0,1.691.607,2.15,2.15,0,0,0,1.453-.5,1.587,1.587,0,0,0,.582-1.256,6.4,6.4,0,0,0-.935-2.15,10.543,10.543,0,0,1-1.494-5.253,7.506,7.506,0,0,1,2.257-5.458,7.308,7.308,0,0,1,5.392-2.29A8.237,8.237,0,0,1,148.911,30.655Z" transform="translate(-137.257 -30.195)" fill="#fff"/>
      </g>
      <g id="Group_4" data-name="Group 4" transform="translate(122.991 46.401)">
        <path id="Path_3" data-name="Path 3" d="M90.623,43.565s-1.122-1.716,2.243-4.289,8.644-6.466,2.375-13.131-10.557-7.72-10.029-13.065c0,0-3.629,5.213.33,10.425s2.771,7.259,1.98,8.182c0,0,.594-3.167-3.035-5.015s-3.035-4.619-3.035-4.619a7.918,7.918,0,0,0-.036,6.994c1.752,4.091.366,5.345.366,5.345A5.581,5.581,0,0,0,79.67,30.5a2.727,2.727,0,0,1-.99-3.355s-3.5,4.806-1.188,8.7,9.94,6.665,9.94,6.665-3.191-2.9,0-7.06c0,0-.042,1.518,1.08,1.518s4.917-3.931,1.913-11.019c0,0,3.3,2.045,3.3,7.983S87.389,39.672,90.623,43.565Z" transform="translate(-76.704 -9.65)" fill="#fff"/>
        <path id="Path_4" data-name="Path 4" d="M97.557,5.635s-.014.1-.027.3-.021.483,0,.85c.012.184.027.387.041.608s.06.458.094.713l.158.807c.073.28.152.576.242.882.106.3.212.618.34.94s.279.648.45.976l.273.491a5.525,5.525,0,0,0,.3.5l.335.488a5.034,5.034,0,0,0,.36.485l.4.471a5.026,5.026,0,0,0,.421.461c.3.286.595.6.93.866s.671.538,1.027.783l1.106.681,1.033.619a4.6,4.6,0,0,1,.485.327l.458.329a14.142,14.142,0,0,1,1.689,1.486,10.816,10.816,0,0,1,.724.806c.245.259.427.557.638.824a15.139,15.139,0,0,1,1.018,1.634c.15.261.26.527.389.772s.217.492.317.717l.247.648.191.561.137.46.091.344c.045.188.067.291.067.291s.011-.1.018-.3.006-.484-.023-.851c-.019-.182-.04-.385-.063-.606s-.072-.457-.122-.71-.112-.52-.188-.8-.164-.574-.276-.872a12.57,12.57,0,0,0-.861-1.884,10.526,10.526,0,0,0-.6-.965,9.815,9.815,0,0,0-.724-.947,9.7,9.7,0,0,0-.841-.905,9.818,9.818,0,0,0-.955-.846l-.523-.4-.264-.2c-.089-.068-.175-.111-.263-.168l-1.08-.66-1-.6c-.319-.22-.627-.454-.939-.678a4.738,4.738,0,0,1-.439-.368l-.428-.372a4.025,4.025,0,0,1-.4-.393l-.385-.4a4.181,4.181,0,0,1-.357-.412L100.419,12c-.226-.274-.4-.573-.608-.846s-.347-.573-.52-.845S99,9.745,98.855,9.48L98.5,8.694l-.289-.73c-.079-.235-.153-.454-.223-.657l-.17-.568-.121-.464-.079-.347C97.576,5.739,97.557,5.635,97.557,5.635Z" transform="translate(-87.926 -5.635)" fill="#fff"/>
        <path id="Path_5" data-name="Path 5" d="M122.493,32.842s.164.3.433.812c.136.257.29.575.47.934s.366.772.562,1.221.4.936.594,1.456.377,1.072.54,1.645c.077.288.153.58.221.876s.126.6.166.9a10.656,10.656,0,0,1,.134,1.834,7.547,7.547,0,0,1-.06.91,8.178,8.178,0,0,1-.147.887,3.537,3.537,0,0,1-.116.429c-.042.141-.075.285-.124.423l-.161.405-.078.2c-.027.067-.063.129-.094.193a7.1,7.1,0,0,1-.4.745,6.444,6.444,0,0,1-.453.684,12.751,12.751,0,0,1-.98,1.178l-.5.484c-.079.077-.153.159-.232.228l-.235.2c-.308.251-.561.5-.8.666s-.41.321-.535.417l-.188.154.228-.078c.147-.055.368-.129.644-.239a8.222,8.222,0,0,0,.97-.453,10.865,10.865,0,0,0,1.2-.727,10.08,10.08,0,0,0,1.273-1.111,6.519,6.519,0,0,0,.61-.711,6.8,6.8,0,0,0,.552-.819,3.1,3.1,0,0,0,.242-.448l.222-.47a9.184,9.184,0,0,0,.341-1,7.427,7.427,0,0,0,.211-1.052,8.717,8.717,0,0,0,.085-1.073,10.1,10.1,0,0,0-.2-2.106,11.72,11.72,0,0,0-.556-1.939,14.249,14.249,0,0,0-.773-1.694,15.348,15.348,0,0,0-.858-1.412c-.285-.423-.575-.79-.835-1.11s-.5-.585-.707-.8-.374-.372-.489-.481S122.493,32.842,122.493,32.842Z" transform="translate(-100.326 -20.305)" fill="#fff"/>
        <path id="Path_6" data-name="Path 6" d="M114.946,66.634s-.039.005-.11.019-.176.034-.3.072a6.713,6.713,0,0,0-1.024.37,8.555,8.555,0,0,0-1.328.749A8.179,8.179,0,0,0,110.834,69a6.219,6.219,0,0,0-.581.731,4.415,4.415,0,0,0-.452.831,2.993,2.993,0,0,0-.218.926,1.266,1.266,0,0,0,0,.236c.006.079.007.154.019.229l.054.222a.774.774,0,0,0,.073.2,1.372,1.372,0,0,0,.2.343l.112.139c.041.039.083.075.124.109a1.75,1.75,0,0,0,.442.273,2.143,2.143,0,0,0,.306.1c.07.018.107.025.107.025l-.222-.346a2.173,2.173,0,0,1-.172-.388l-.037-.108c-.006-.038-.011-.077-.017-.117a1.079,1.079,0,0,1-.016-.115l0-.119a1.279,1.279,0,0,1,.032-.237,2.114,2.114,0,0,1,.086-.247c.021-.042.038-.085.055-.128l.073-.132c.043-.087.11-.181.165-.272s.129-.187.2-.282.147-.19.231-.287c.159-.192.334-.389.515-.582s.367-.389.55-.585l.553-.572c.361-.375.7-.737.988-1.061s.522-.608.683-.817c.083-.1.142-.189.186-.245Z" transform="translate(-94.429 -38.525)" fill="#fff"/>
      </g>
    </g>
    <text id="by_BITDATA" data-name="by BITDATA" transform="translate(124 627)" fill="#fff" font-size="10" font-family="MyriadPro-Light, Myriad Pro" font-weight="300"><tspan x="0" y="0">by BITDATA</tspan></text>
  </g>
</svg>
