<svg xmlns="http://www.w3.org/2000/svg" xmlns:xlink="http://www.w3.org/1999/xlink" width="130" height="112" viewBox="0 0 130 112">
  <defs>
    <linearGradient id="linear-gradient" y1="0.5" x2="1" y2="0.5" gradientUnits="objectBoundingBox">
      <stop offset="0" stop-color="#333"/>
      <stop offset="1"/>
    </linearGradient>
    <linearGradient id="linear-gradient-3" x1="0.5" x2="0.5" y2="1" gradientUnits="objectBoundingBox">
      <stop offset="0" stop-color="#f7931e"/>
      <stop offset="1" stop-color="#f15a24"/>
    </linearGradient>
    <linearGradient id="linear-gradient-4" x1="0.5" y1="0" x2="0.5" y2="1" xlink:href="#linear-gradient"/>
    <filter id="labelCompanyRegister" x="20" y="76" width="90" height="36" filterUnits="userSpaceOnUse">
      <feOffset dy="3" input="SourceAlpha"/>
      <feGaussianBlur stdDeviation="3" result="blur"/>
      <feFlood flood-opacity="0.161"/>
      <feComposite operator="in" in2="blur"/>
      <feComposite in="SourceGraphic"/>
    </filter>
  </defs>
  <g id="Group_6" data-name="Group 6" transform="translate(-109 -48)">
    <g id="logoApp" transform="translate(76.452 42.365)">
      <g id="Group_2" data-name="Group 2">
        <path id="Path_1" data-name="Path 1" d="M56.093,52.779H69.878a18.286,18.286,0,0,1,4.453,11.648,15.682,15.682,0,0,1-5.218,11.968A18.169,18.169,0,0,1,56.271,81.24a21.988,21.988,0,0,1-16.813-7.516,26.069,26.069,0,0,1-6.91-18.309,24.745,24.745,0,0,1,7.035-18.024,23.576,23.576,0,0,1,17.579-7.2,25.478,25.478,0,0,1,7.979,1.461V46.118a14.866,14.866,0,0,0-6.234-1.6,11.36,11.36,0,0,0-8.317,3.17,11.031,11.031,0,0,0-3.224,8.228,11.147,11.147,0,0,0,2.992,8.193,10.853,10.853,0,0,0,8.086,3.028q3.241,0,3.242-1.888,0-1.425-2.138-1.425H56.093Z" fill="url(#linear-gradient)"/>
      </g>
      <g id="Group_3" data-name="Group 3">
        <path id="Path_2" data-name="Path 2" d="M162.548,31.193V45.049a8.181,8.181,0,0,0-2.422-.534,3.783,3.783,0,0,0-2.814,1.211,4.042,4.042,0,0,0-1.176,2.921,7.989,7.989,0,0,0,1.283,3.7l1.1,1.924a20.141,20.141,0,0,1,2.992,10.045,16.127,16.127,0,0,1-5.04,12,16.965,16.965,0,0,1-12.307,4.916,16.15,16.15,0,0,1-6.911-1.6V65.567a7.059,7.059,0,0,0,3.669,1.318,4.666,4.666,0,0,0,3.153-1.087,3.445,3.445,0,0,0,1.264-2.725q0-1.068-2.03-4.666a22.88,22.88,0,0,1-3.242-11.4,16.29,16.29,0,0,1,4.9-11.844,15.86,15.86,0,0,1,11.7-4.969A17.875,17.875,0,0,1,162.548,31.193Z" fill="url(#linear-gradient)"/>
      </g>
      <g id="Group_4" data-name="Group 4">
        <path id="Path_3" data-name="Path 3" d="M106.91,79.235s-2.434-3.723,4.868-9.307,18.758-14.033,5.155-28.5S94.023,24.68,95.168,13.081c0,0-7.875,11.312.716,22.624s6.014,15.752,4.3,17.756c0,0,1.289-6.873-6.587-10.883s-6.586-10.023-6.586-10.023-3.88,6.3-.079,15.178.794,11.6.794,11.6-.429-5.728-4.581-8.448S80.993,43.6,80.993,43.6,73.4,54.033,78.415,62.481s21.57,14.463,21.57,14.463-6.925-6.3,0-15.322c0,0-.091,3.294,2.343,3.294S113,56.385,106.48,41c0,0,7.16,4.438,7.16,17.325S99.893,70.786,106.91,79.235Z" fill="url(#linear-gradient-3)"/>
        <path id="Path_4" data-name="Path 4" d="M97.6,5.635s-.031.223-.059.649-.045,1.049-.01,1.845c.027.4.058.84.09,1.32.048.479.131.993.205,1.548.108.55.222,1.135.343,1.751.158.607.33,1.249.525,1.915.23.652.46,1.341.738,2.04.309.682.606,1.406.977,2.117L101,19.886a11.991,11.991,0,0,0,.644,1.076q.358.524.726,1.058a10.924,10.924,0,0,0,.781,1.052l.859,1.022a10.906,10.906,0,0,0,.914,1c.661.62,1.291,1.3,2.018,1.88.737.561,1.456,1.167,2.228,1.7l2.4,1.478,2.242,1.343a9.973,9.973,0,0,1,1.052.709l.993.713a30.688,30.688,0,0,1,3.665,3.224A23.47,23.47,0,0,1,121.1,37.89c.532.563.927,1.208,1.384,1.789a32.852,32.852,0,0,1,2.209,3.545c.325.567.565,1.144.844,1.675.261.538.47,1.067.689,1.557l.536,1.407.414,1.217c.112.373.211.707.3,1s.144.544.2.747c.1.409.145.631.146.631s.023-.225.038-.65.012-1.051-.05-1.847c-.042-.4-.087-.836-.137-1.315-.071-.476-.157-.991-.264-1.54-.128-.542-.242-1.129-.408-1.737-.184-.6-.355-1.245-.6-1.893a27.28,27.28,0,0,0-1.868-4.088,22.844,22.844,0,0,0-1.31-2.1,21.3,21.3,0,0,0-1.572-2.056,21.042,21.042,0,0,0-1.826-1.965,21.306,21.306,0,0,0-2.072-1.836l-1.136-.867-.573-.432c-.193-.148-.38-.241-.571-.365l-2.343-1.433-2.177-1.308c-.693-.478-1.36-.986-2.038-1.471a10.281,10.281,0,0,1-.952-.8l-.929-.808a8.733,8.733,0,0,1-.867-.853q-.421-.434-.836-.863a9.073,9.073,0,0,1-.774-.9l-.739-.9c-.491-.595-.877-1.244-1.319-1.836-.417-.608-.753-1.244-1.128-1.834-.345-.606-.634-1.217-.946-1.792q-.408-.891-.779-1.706l-.628-1.584c-.172-.509-.333-.986-.483-1.426l-.368-1.232c-.1-.378-.186-.715-.263-1.008l-.172-.754C97.644,5.86,97.6,5.635,97.6,5.635Z" fill="url(#linear-gradient-4)"/>
        <path id="Path_5" data-name="Path 5" d="M124.809,32.842s.355.642.94,1.762c.295.558.63,1.248,1.021,2.026s.794,1.675,1.22,2.649.867,2.031,1.288,3.159.818,2.326,1.172,3.569c.168.624.331,1.259.479,1.9.126.646.273,1.3.361,1.956a23.122,23.122,0,0,1,.29,3.981,16.374,16.374,0,0,1-.131,1.974,17.746,17.746,0,0,1-.32,1.924,7.677,7.677,0,0,1-.251.93c-.092.306-.162.619-.269.917l-.349.879-.169.439c-.058.145-.137.279-.205.419a15.407,15.407,0,0,1-.87,1.617,13.982,13.982,0,0,1-.984,1.484,27.671,27.671,0,0,1-2.126,2.556l-1.078,1.05c-.172.168-.331.344-.5.5l-.509.431c-.668.544-1.217,1.088-1.733,1.446-.5.374-.89.7-1.16.906l-.409.334.5-.17c.32-.119.8-.28,1.4-.518a17.844,17.844,0,0,0,2.106-.984,23.576,23.576,0,0,0,2.611-1.578,21.874,21.874,0,0,0,2.763-2.41,14.147,14.147,0,0,0,1.323-1.544,14.743,14.743,0,0,0,1.2-1.777,6.726,6.726,0,0,0,.526-.972l.482-1.019a19.934,19.934,0,0,0,.74-2.171,16.116,16.116,0,0,0,.457-2.282,18.921,18.921,0,0,0,.184-2.328,21.919,21.919,0,0,0-.438-4.57,25.433,25.433,0,0,0-1.207-4.207,30.926,30.926,0,0,0-1.677-3.676,33.313,33.313,0,0,0-1.862-3.064c-.618-.918-1.247-1.714-1.811-2.409s-1.093-1.269-1.534-1.734-.812-.808-1.061-1.044S124.809,32.842,124.809,32.842Z" fill="url(#linear-gradient-4)"/>
        <path id="Path_6" data-name="Path 6" d="M121.229,66.634s-.085.011-.239.042-.382.073-.656.157a14.568,14.568,0,0,0-2.223.8,18.567,18.567,0,0,0-2.883,1.626,17.75,17.75,0,0,0-2.923,2.5,13.5,13.5,0,0,0-1.261,1.587,9.581,9.581,0,0,0-.981,1.8,6.5,6.5,0,0,0-.474,2.009,2.746,2.746,0,0,0,0,.513c.012.171.016.335.041.5l.117.481a1.68,1.68,0,0,0,.159.442,2.978,2.978,0,0,0,.437.744l.242.3c.09.085.181.163.269.236a3.8,3.8,0,0,0,.96.593,4.65,4.65,0,0,0,.663.211c.151.04.233.054.233.054s-.191-.3-.481-.75a4.717,4.717,0,0,1-.373-.842l-.08-.235c-.012-.082-.024-.167-.036-.254a2.349,2.349,0,0,1-.035-.25l.009-.258a2.772,2.772,0,0,1,.07-.514,4.586,4.586,0,0,1,.187-.537c.046-.092.082-.185.119-.277l.159-.287c.094-.188.239-.392.358-.59.151-.2.28-.406.441-.611s.32-.413.5-.623c.345-.417.725-.845,1.118-1.264s.8-.844,1.194-1.269l1.2-1.242c.784-.814,1.52-1.6,2.143-2.3s1.132-1.319,1.482-1.772c.18-.217.308-.411.4-.532Z" fill="url(#linear-gradient-4)"/>
      </g>
    </g>
    <g transform="matrix(1, 0, 0, 1, 109, 48)" filter="url(#labelCompanyRegister)">
      <text id="labelCompanyRegister-2" data-name="labelCompanyRegister" transform="translate(29 96)" fill="#333" font-size="14" font-family="MyriadPro-Bold, Myriad Pro" font-weight="700"><tspan x="0" y="0">by BITDATA</tspan></text>
    </g>
  </g>
</svg>
